<?xml version="1.0" encoding="UTF-8"?>
<svg version="1.1" xmlns="http://www.w3.org/2000/svg" width="1024" height="1024">
<path d="M0 0 C337.92 0 675.84 0 1024 0 C1024 337.92 1024 675.84 1024 1024 C686.08 1024 348.16 1024 0 1024 C0 686.08 0 348.16 0 0 Z " fill="#FAF9F8" transform="translate(0,0)"/>
<path d="M0 0 C26.07 0 52.14 0 79 0 C79.33 74.91 79.66 149.82 80 227 C88.69440389 217.62523772 88.69440389 217.62523772 97.16015625 208.08984375 C100.03984905 204.81885511 103.00354253 201.62496909 105.95556641 198.41943359 C108.48754824 195.66508903 110.99042801 192.8924879 113.4375 190.0625 C117.01802312 185.93244815 120.73579762 181.9339593 124.45019531 177.92480469 C129.01597932 172.99352953 133.51649095 168.00617677 138 163 C139.49956619 161.332943 140.99957053 159.66628005 142.5 158 C144.72829114 155.52497766 146.9557884 153.04928246 149.1796875 150.5703125 C153.30097727 145.97969436 157.44870713 141.41550032 161.625 136.875 C164.60218281 133.63782784 167.55952856 130.38862271 170.4375 127.0625 C174.06144644 122.87967989 177.83255746 118.83728193 181.59521484 114.77978516 C184.84864787 111.26517971 188.03408762 107.70391333 191.16796875 104.08203125 C193.99864261 100.86508207 196.90767016 97.7202932 199.80834961 94.56665039 C204.24236939 89.74396118 208.62525909 84.87650331 213 80 C214.49971128 78.33307353 215.99971321 76.66640851 217.5 75 C219.84462733 72.39531717 222.18864875 69.79009915 224.53125 67.18359375 C225.3459375 66.27738281 226.160625 65.37117188 227 64.4375 C227.7425 63.61121094 228.485 62.78492188 229.25 61.93359375 C230.14940606 60.93983036 231.05224029 59.94775971 232 59 C235.13559886 58.90465042 238.24913613 58.87449121 241.38500977 58.88647461 C242.86289474 58.88625557 242.86289474 58.88625557 244.37063599 58.8860321 C247.64424807 58.88673168 250.91780404 58.89452615 254.19140625 58.90234375 C256.45442168 58.90420777 258.71743751 58.90563175 260.98045349 58.90663147 C266.94978948 58.9104579 272.91910132 58.92028925 278.88842773 58.93133545 C284.97444329 58.94154688 291.06046273 58.94612851 297.14648438 58.95117188 C309.09766689 58.96191141 321.04883144 58.97898932 333 59 C332.0691211 60.26573312 331.13475536 61.52890222 330.19897461 62.79101562 C329.67903427 63.4947229 329.15909393 64.19843018 328.62339783 64.92346191 C326.18318052 68.04481892 323.41284824 70.75753937 320.5625 73.5 C316.53232586 77.45402669 312.64424215 81.42740713 308.984375 85.73046875 C306.16751045 88.95211895 303.23829718 92.06487575 300.3125 95.1875 C295.8180877 99.98614395 291.33122248 104.79084379 286.875 109.625 C286.38668701 110.15456299 285.89837402 110.68412598 285.39526367 111.22973633 C283.92982455 112.81950102 282.46482757 114.40967181 281 116 C274.07293407 123.52054949 267.12209442 131.01758084 260.13891602 138.48608398 C256.59155194 142.28372371 253.06697902 146.10025146 249.5625 149.9375 C245.2655262 154.63889487 240.92339173 159.29536673 236.5625 163.9375 C228.18408759 172.85679592 219.88419058 181.84527269 211.625 190.875 C204.53942506 198.61790677 197.35840991 206.27184537 190.18847656 213.93652344 C184.28698965 220.24655028 178.38965307 226.5586638 172.5625 232.9375 C168.20675 237.70501957 163.799074 242.42086592 159.375 247.125 C155.39400784 251.35850306 151.4286366 255.59826064 147.5625 259.9375 C142.77015794 265.31183427 137.8100546 270.52536659 132.86572266 275.75927734 C128.64559086 280.23295379 124.49273559 284.75479785 120.40234375 289.34765625 C117.14716536 292.94158491 113.82292857 296.46877816 110.5 300 C105.72461647 305.07530948 101.00356414 310.18715506 96.36328125 315.38671875 C92.72288438 319.41221546 89.00590069 323.36547354 85.29711914 327.32788086 C80.74770484 332.19100562 76.23354744 337.08391665 71.75 342.0078125 C69.75351965 344.19310954 67.72744215 346.34742153 65.6875 348.4921875 C65.13529785 349.07726074 64.5830957 349.66233398 64.01416016 350.26513672 C62.94683395 351.39477926 61.87384879 352.51911029 60.79443359 353.63720703 C58.90242462 355.64829792 57.21624945 357.61563882 55.859375 360.02734375 C56.09909446 363.39007513 58.60006975 365.29639729 60.875 367.5625 C61.90742782 368.63564051 62.93733903 369.7112073 63.96484375 370.7890625 C64.48159668 371.32821289 64.99834961 371.86736328 65.53076172 372.42285156 C67.62111284 374.6667313 69.52791781 377.03909291 71.4375 379.4375 C75.28110057 384.21621628 79.36960164 388.69157687 83.55834961 393.16381836 C87.4599667 397.35329526 91.07324797 401.72172936 94.65625 406.1875 C97.33208171 409.39849805 100.14358276 412.45029137 103 415.5 C107.43832674 420.23866464 111.5914225 425.12119326 115.65625 430.1875 C118.33208171 433.39849805 121.14358276 436.45029137 124 439.5 C128.43832674 444.23866464 132.5914225 449.12119326 136.65625 454.1875 C139.33208171 457.39849805 142.14358276 460.45029137 145 463.5 C148.64886656 467.39578234 152.15698239 471.33334037 155.5 475.5 C159.83927344 480.90436782 164.50396415 485.94955123 169.2265625 491.015625 C172.57148793 494.60410211 175.80281742 498.27964209 179 502 C180.02983039 503.18760192 181.05979101 504.37509092 182.08984375 505.5625 C183.20598933 506.85394186 184.32187286 508.14561025 185.4375 509.4375 C185.98277344 510.0658374 186.52804687 510.6941748 187.08984375 511.34155273 C191 515.88573783 191 515.88573783 191 517 C179.62122813 517.32569709 168.24358038 517.57378355 156.86108112 517.72537041 C151.57424063 517.79816334 146.2906088 517.8967161 141.00561523 518.05615234 C135.89596239 518.20931793 130.78937539 518.2921846 125.67760277 518.3282814 C123.73688689 518.35396954 121.79632202 518.40413984 119.85692787 518.48022079 C103.90763712 519.08048529 103.90763712 519.08048529 97.95614624 513.93951416 C95.0778577 511.04599429 92.57095704 507.94312418 90.18787193 504.63403702 C88.67276812 502.54985972 86.98561783 500.65214598 85.25 498.75 C84.72921875 498.14671875 84.2084375 497.5434375 83.671875 496.921875 C81.64241927 494.58894926 79.572353 492.29488755 77.5 490 C74.23609152 486.38323655 71.01209051 482.73610392 67.8125 479.0625 C64.9673071 475.8248667 62.07146164 472.6331371 59.18359375 469.43359375 C57.29151315 467.32488854 55.42094242 465.20080199 53.5625 463.0625 C49.92289544 458.87992413 46.17875277 454.79538241 42.4296875 450.7109375 C39.88257237 447.86897946 37.4431672 444.93180064 35 442 C34.67 466.75 34.34 491.5 34 517 C8.59 517 -16.82 517 -43 517 C-43.0093457 509.78318359 -43.01869141 502.56636719 -43.02832031 495.13085938 C-43.06108759 471.99089472 -43.11341451 448.85101289 -43.17792095 425.71111813 C-43.18793738 422.11161171 -43.19778168 418.51210484 -43.20751953 414.91259766 C-43.2094609 414.19605646 -43.21140228 413.47951527 -43.21340248 412.74126071 C-43.24435097 401.1672922 -43.26138309 389.59334347 -43.27319422 378.01934141 C-43.28564298 366.12695753 -43.31322786 354.23467681 -43.35461307 342.34235811 C-43.37740693 335.66951853 -43.39291308 328.99678957 -43.39188385 322.32389832 C-43.39113487 316.03328638 -43.40918139 309.74299875 -43.44116783 303.45247078 C-43.44963278 301.15324955 -43.45144014 298.85399179 -43.44580269 296.55476189 C-43.39214215 271.28890062 -48.45646903 249.2357408 -66.1875 230.25 C-83.67511923 213.64744352 -106.05562928 207.37536276 -129.71875 207.72265625 C-151.01041789 208.50020444 -171.74942414 218.44805514 -186.2734375 233.9609375 C-205.23813854 256.35816361 -208.89952348 281.57823188 -207 310 C-204.78537347 332.30904981 -192.81939068 352.4921748 -176 367 C-168.25248213 372.60073028 -160.00125747 376.82242042 -151 380 C-149.95328125 380.39316406 -148.9065625 380.78632812 -147.828125 381.19140625 C-130.8184947 386.7137636 -110.80052981 385.88984091 -94 380 C-92.94039062 379.63777344 -91.88078125 379.27554687 -90.7890625 378.90234375 C-79.31985943 374.5534814 -70.21453467 367.75032061 -61.86328125 358.90625 C-61.24839844 358.2771875 -60.63351562 357.648125 -60 357 C-59.67 357 -59.34 357 -59 357 C-59 384.72 -59 412.44 -59 441 C-69.20869032 446.44463484 -78.0275834 451.10019773 -89 454 C-89.84159668 454.22848633 -90.68319336 454.45697266 -91.55029297 454.69238281 C-114.97699926 460.82172817 -142.38156497 462.17425072 -166 456 C-167.19206055 455.69400879 -167.19206055 455.69400879 -168.40820312 455.38183594 C-191.24668609 449.36110002 -211.17884582 439.6626914 -229 424 C-230.27617187 422.90558594 -230.27617187 422.90558594 -231.578125 421.7890625 C-246.73697711 408.53669179 -257.75225076 392.7482944 -267 375 C-267.32097656 374.38543945 -267.64195312 373.77087891 -267.97265625 373.13769531 C-273.26850595 362.82851509 -276.79947688 352.11720169 -280 341 C-280.3196875 339.91847656 -280.639375 338.83695312 -280.96875 337.72265625 C-284.84167261 323.60585333 -285.41364049 308.87098641 -285.375 294.3125 C-285.37445618 293.53140869 -285.37391235 292.75031738 -285.37335205 291.94555664 C-285.33192361 278.93106024 -284.27524505 266.64035909 -281 254 C-280.80164551 253.18289551 -280.60329102 252.36579102 -280.39892578 251.52392578 C-275.91934157 233.35969291 -267.98537812 215.19149136 -257 200 C-256.30390625 199.02289063 -255.6078125 198.04578125 -254.890625 197.0390625 C-249.97906156 190.31530151 -244.72329108 184.04395086 -239 178 C-238.23042969 177.17757812 -237.46085937 176.35515625 -236.66796875 175.5078125 C-217.398367 155.52221585 -192.52340969 142.48660402 -166 135 C-165.195625 134.7726416 -164.39125 134.5452832 -163.5625 134.31103516 C-141.46925968 128.40163843 -114.19754489 128.47913576 -92 134 C-91.20029785 134.19867676 -90.4005957 134.39735352 -89.57666016 134.60205078 C-67.22052303 140.3715159 -47.58391491 149.97271246 -30 165 C-29.12988281 165.71285156 -28.25976562 166.42570313 -27.36328125 167.16015625 C-16.18537933 176.71160169 -8.53475716 188.44207141 -1 201 C-0.67 134.67 -0.34 68.34 0 0 Z " fill="#0E0E0E" transform="translate(453,137)"/>
<path d="M0 0 C59.75981524 0 59.75981524 0 66.390625 4.69140625 C75.72986148 14.08950347 77.14963458 24.44410178 77.14717102 37.21630859 C77.15084771 38.24313499 77.1545244 39.2699614 77.1583125 40.32790375 C77.16932356 43.76808676 77.17318893 47.20823953 77.17700195 50.6484375 C77.1832689 53.11605932 77.18991591 55.5836802 77.19691467 58.05130005 C77.21612572 65.45868746 77.22674397 72.86606684 77.23564246 80.27347183 C77.24003447 83.77126401 77.24539918 87.2690547 77.25063133 90.7668457 C77.26764556 102.4130217 77.28213374 114.05919679 77.28938007 125.7053833 C77.29128966 128.72513836 77.29321002 131.74489341 77.29516602 134.76464844 C77.29564976 135.51510075 77.2961335 136.26555306 77.2966319 137.03874636 C77.30490968 149.16122019 77.33020743 161.28359462 77.36274669 173.40602517 C77.39596355 185.88392023 77.41384226 198.36176507 77.41702431 210.83970451 C77.41917676 217.83238767 77.42773682 224.82492621 77.45348549 231.81756592 C77.47770645 238.41023863 77.48092735 245.00270034 77.47072411 251.59542465 C77.47023289 253.99858337 77.47642907 256.40175557 77.49028015 258.80487442 C77.64570843 287.40133926 73.94939635 315.97573991 53.359375 337.63671875 C52.58078125 338.41660156 51.8021875 339.19648437 51 340 C50.26265625 340.74894531 49.5253125 341.49789063 48.765625 342.26953125 C35.43861125 355.03752597 18.99325696 363.40134861 1 367 C0.67 360.07 0.34 353.14 0 346 C-1.299375 347.134375 -2.59875 348.26875 -3.9375 349.4375 C-15.53484635 358.66303363 -28.7592136 364.26238496 -43 368 C-43.88558594 368.23332031 -44.77117187 368.46664063 -45.68359375 368.70703125 C-79.76390732 376.91702013 -115.04615268 366.85958293 -144.2578125 349.10986328 C-148.47551239 346.42297095 -152.25717077 343.30287145 -156 340 C-156.82886719 339.29101562 -157.65773438 338.58203125 -158.51171875 337.8515625 C-182.80706004 316.64429675 -199.94805046 285.22003567 -202.82128906 252.82519531 C-205.17811202 215.56678651 -198.52437312 180.30998205 -173.67578125 151.28515625 C-169.91380997 147.05060676 -166.02690503 142.98340451 -162 139 C-160.84564453 137.84951172 -160.84564453 137.84951172 -159.66796875 136.67578125 C-132.11324434 110.42285485 -95.26674065 102.03657479 -58.23535156 102.86816406 C-35.82094208 103.78151911 -17.69769721 112.72672709 0 126 C0 84.42 0 42.84 0 0 Z " fill="#0E0E0E" transform="translate(785,284)"/>
<path d="M0 0 C13.60718861 10.45383732 23.19278845 25.10029854 26.56640625 42.03125 C28.93263948 63.68974514 27.9496779 87.41837345 14.1875 105.375 C12.8216504 106.9432926 11.42624988 108.4864287 10 110 C9.35675781 110.69609375 8.71351563 111.3921875 8.05078125 112.109375 C-4.7487143 124.68945062 -22.07525289 129.2864508 -39.51782227 129.31689453 C-58.36473668 129.0244144 -73.04310912 121.0918585 -86 108 C-86.928125 107.10474609 -86.928125 107.10474609 -87.875 106.19140625 C-100.52083122 92.98573355 -102.64468527 72.03728839 -102.46826172 54.69213867 C-101.93126361 37.14410896 -95.65184312 19.71708209 -83.20703125 7.0390625 C-60.34469978 -14.08330392 -26.01194486 -17.35270532 0 0 Z " fill="#F9F8F7" transform="translate(761,461)"/>
<path d="M0 0 C7.26 0 14.52 0 22 0 C22 40.59 22 81.18 22 123 C15.07 123 8.14 123 1 123 C1 119.7 1 116.4 1 113 C0.07380859 113.79664063 0.07380859 113.79664063 -0.87109375 114.609375 C-10.72945028 122.83217467 -19.98459421 127.12201774 -33 126 C-44.20549147 123.9727957 -52.86677049 118.93127496 -60 110 C-68.53920341 96.13324048 -70.17041992 80.24272793 -67.34765625 64.3203125 C-64.01009957 53.29061875 -56.78183402 43.64925603 -46.85546875 37.71875 C-37.40823088 32.81109396 -25.9512783 32.52305403 -15.6171875 34.71875 C-9.76246696 36.74099331 -6.26959753 39.23600177 -1 43 C-0.67 28.81 -0.34 14.62 0 0 Z " fill="#0E0E0E" transform="translate(415,715)"/>
<path d="M0 0 C8.79655776 7.29334852 15.23322165 15.92054879 17.6875 27.25 C18.98116348 42.47954184 17.77476583 56.38032406 8.0078125 68.7421875 C-1.45239806 78.96685952 -12.31663319 83.21385776 -26.0559082 83.76953125 C-39.33389182 83.97650363 -49.82948364 81.34722632 -60.08984375 72.48828125 C-69.93661636 62.57228704 -73.52148185 51.75033232 -73.5 37.9375 C-73.43680717 25.04341551 -70.70964609 14.64014079 -61.5625 4.9375 C-44.80739932 -10.57765965 -18.98532767 -13.1211338 0 0 Z " fill="#0F0F0F" transform="translate(831.3125,756.75)"/>
<path d="M0 0 C8.03797243 5.77375485 12.56772979 13.48449868 14.1875 23.1875 C14.27202744 25.21123551 14.30528959 27.23744393 14.30102539 29.26293945 C14.30091209 31.06424065 14.30091209 31.06424065 14.30079651 32.90193176 C14.29563522 34.18855209 14.29047394 35.47517242 14.28515625 36.80078125 C14.28328956 38.13884936 14.28186684 39.47691815 14.28086853 40.81498718 C14.27706314 44.3248587 14.26724988 47.83468839 14.25616455 51.34454346 C14.24590777 54.93086176 14.24136179 58.51718686 14.23632812 62.10351562 C14.22562572 69.13152926 14.20804506 76.15950831 14.1875 83.1875 C6.9275 83.1875 -0.3325 83.1875 -7.8125 83.1875 C-8.3075 78.7325 -8.3075 78.7325 -8.8125 74.1875 C-9.48732422 74.87585938 -9.48732422 74.87585938 -10.17578125 75.578125 C-18.57972714 83.59471467 -27.16970278 85.7902507 -38.52832031 85.66259766 C-47.48487977 85.29927689 -55.59530484 82.85961188 -61.8125 76.1875 C-67.20904094 69.69135041 -66.61756574 61.0654259 -66.02685547 53.07519531 C-65.31956509 46.84652879 -62.43448696 43.4471366 -57.8125 39.4375 C-49.23684075 33.2290062 -38.7544289 31.04015748 -28.3203125 31.08984375 C-27.12148437 31.09306641 -25.92265625 31.09628906 -24.6875 31.09960938 C-22.83125 31.11217773 -22.83125 31.11217773 -20.9375 31.125 C-19.67679688 31.12951172 -18.41609375 31.13402344 -17.1171875 31.13867188 C-14.01557614 31.1504204 -10.91406275 31.16684833 -7.8125 31.1875 C-8.10072983 29.58199771 -8.39805903 27.97812722 -8.69921875 26.375 C-8.86381592 25.48167969 -9.02841309 24.58835937 -9.19799805 23.66796875 C-10.02122185 20.34498352 -11.29497105 18.48924076 -13.8125 16.1875 C-19.82380697 13.18184652 -26.25615163 13.57886131 -32.8125 14.1875 C-38.83542927 16.7835902 -39.3051405 19.04962087 -42.8125 25.1875 C-49.4125 25.1875 -56.0125 25.1875 -62.8125 25.1875 C-61.4659663 14.41523044 -58.63977733 7.83462401 -50.22265625 0.87890625 C-36.10479595 -9.02876556 -14.45703624 -8.97089708 0 0 Z " fill="#0F0F0F" transform="translate(236.8125,754.8125)"/>
<path d="M0 0 C9.73176549 6.99091175 15.34983311 16.64933243 18.25 28.25 C18.25 33.86 18.25 39.47 18.25 45.25 C-3.2 45.25 -24.65 45.25 -46.75 45.25 C-43.8880238 55.92907829 -43.8880238 55.92907829 -36.375 62.5625 C-30.00146786 65.50413022 -22.22287567 65.24567438 -15.46875 63.7421875 C-12.3864761 62.56605667 -10.77057088 61.2769942 -8.7734375 58.65625 C-4.22561479 55.0367942 -0.06661197 55.70340385 5.5625 55.9375 C7.10260742 55.97133789 7.10260742 55.97133789 8.67382812 56.00585938 C11.2007179 56.06462425 13.72460255 56.14672151 16.25 56.25 C11.06137059 68.04233956 5.08474476 75.82574199 -6.75 81.25 C-7.7090625 81.72953125 -7.7090625 81.72953125 -8.6875 82.21875 C-18.91725191 86.53442659 -32.94979741 85.56517322 -43.07421875 81.57421875 C-57.01219624 74.67644595 -63.95001035 64.9261614 -69.0625 50.5625 C-72.0878954 36.2579606 -69.22624132 22.71477195 -61.3671875 10.49609375 C-47.16362797 -9.23107226 -20.01567888 -12.25039878 0 0 Z " fill="#0F0E0F" transform="translate(518.75,755.75)"/>
<path d="M0 0 C7.59 0 15.18 0 23 0 C23.33 23.1 23.66 46.2 24 70 C26.97 66.37 29.94 62.74 33 59 C35.1968636 56.42547333 37.39847227 53.86069945 39.625 51.3125 C40.14578125 50.71373047 40.6665625 50.11496094 41.203125 49.49804688 C42.25893121 48.28490994 43.32563818 47.08117326 44.40307617 45.88720703 C46.05923678 44.00538786 46.05923678 44.00538786 47.46606445 41.78076172 C50.00400287 38.19391459 51.67620747 36.27110919 56.08398438 35.3684082 C59.73442229 35.21257823 63.28950252 35.3010531 66.9375 35.5 C68.19369141 35.53609375 69.44988281 35.5721875 70.74414062 35.609375 C73.83258778 35.70332016 76.91469438 35.834551 80 36 C76.24760773 41.11479423 72.3586745 46.03439578 68.1875 50.8125 C63.67746653 56.02465649 59.26036597 61.29462679 54.9140625 66.64453125 C52.63380496 69.4506441 50.32208587 72.22847815 48 75 C49.59346039 80.10903237 52.73412235 83.8028047 56 87.9375 C61.05766264 94.44050937 65.9478797 101.02497221 70.69921875 107.75390625 C73.61644922 111.86972716 76.60411458 115.93047132 79.6015625 119.98828125 C81 122 81 122 81 123 C58.61869051 125.83338369 58.61869051 125.83338369 51.54052734 121.49121094 C47.30675852 117.4500251 44.39761858 112.56613602 41.50732422 107.515625 C39.05276314 103.41912397 36.07180035 99.74913194 33.125 96 C28 89.33519466 28 89.33519466 28 87 C25.88550047 87.99351404 25.88550047 87.99351404 24 90 C23.57322037 92.63454348 23.39521604 94.87230436 23.390625 97.51171875 C23.36582062 98.60405571 23.36582062 98.60405571 23.34051514 99.71846008 C23.29197803 102.04155865 23.27065331 104.3640025 23.25 106.6875 C23.22184482 108.26370492 23.19191801 109.83987926 23.16015625 111.41601562 C23.08288296 115.27764641 23.04242504 119.13720011 23 123 C15.41 123 7.82 123 0 123 C0 82.41 0 41.82 0 0 Z " fill="#0F0F0F" transform="translate(266,715)"/>
<path d="M0 0 C8.95459445 6.50513139 13.86991067 14.61576989 16.23828125 25.2734375 C12.36430436 25.50675554 8.49213701 25.6481688 4.61328125 25.7734375 C3.51886719 25.84046875 2.42445313 25.9075 1.296875 25.9765625 C-6.73324681 26.17123212 -6.73324681 26.17123212 -9.76196289 23.52734375 C-11.3359375 21.3671875 -11.3359375 21.3671875 -12.57299805 19.20117188 C-14.62765957 15.86915146 -17.08026058 15.23906587 -20.76171875 14.2734375 C-28.70322068 13.19828032 -35.27237368 14.42399913 -41.76171875 19.2734375 C-46.89517349 25.03351113 -49.27194134 32.40690519 -49.00390625 40.10546875 C-48.08558159 48.32595564 -45.31009065 55.0018717 -38.76171875 60.2734375 C-33.06490249 63.26275628 -27.04661055 64.26036075 -20.7265625 62.8046875 C-15.41186054 61.13577174 -12.91972311 58.82467908 -9.76171875 54.2734375 C-9.10171875 52.9534375 -8.44171875 51.6334375 -7.76171875 50.2734375 C0.15828125 50.2734375 8.07828125 50.2734375 16.23828125 50.2734375 C13.73637964 61.53199475 10.53834354 69.75491591 0.98828125 76.3984375 C-11.7992526 84.5185215 -24.96451965 85.90321532 -39.84375 83.84765625 C-50.96401053 80.91938086 -59.58070889 73.78605551 -65.76171875 64.2734375 C-67.4089582 61.34774356 -68.68185949 58.45049711 -69.76171875 55.2734375 C-69.98601563 54.62503906 -70.2103125 53.97664062 -70.44140625 53.30859375 C-74.42533332 39.09197729 -72.00258461 24.68202128 -65.01171875 11.9609375 C-58.8508313 2.4062113 -49.7392988 -3.10325114 -38.86010742 -6.28222656 C-25.41891259 -9.12841325 -11.57348492 -7.23547431 0 0 Z " fill="#0F0F0F" transform="translate(733.76171875,755.7265625)"/>
<path d="M0 0 C7.92 0 15.84 0 24 0 C29.02319558 12.75814198 33.78294481 25.58134288 38.375 38.5 C39.31531544 41.14069107 40.2563749 43.78111124 41.19888306 46.42102051 C41.77787757 48.04316924 42.35555459 49.66578901 42.93173218 51.28894043 C44.31001216 55.20909231 44.31001216 55.20909231 46 59 C46.2461203 58.31983826 46.4922406 57.63967651 46.74581909 56.93890381 C49.06792581 50.52303028 51.39236187 44.10800502 53.71940422 37.69392014 C54.91561926 34.39650751 56.11093754 31.09877562 57.30419922 27.80029297 C58.67668479 24.00651279 60.05308259 20.2141624 61.4296875 16.421875 C61.85684052 15.23946228 62.28399353 14.05704956 62.72409058 12.83880615 C63.12435455 11.73796692 63.52461853 10.63712769 63.93701172 9.50292969 C64.46329666 8.05064972 64.46329666 8.05064972 65.00021362 6.56903076 C66 4 66 4 68 0 C75.92 0 83.84 0 92 0 C87.75 10.625 87.75 10.625 86.28149414 14.29516602 C83.8920066 20.26732485 81.50459665 26.24029366 79.12109375 32.21484375 C71.82012532 50.50635971 64.43000302 68.76054097 57 87 C49.41 87 41.82 87 34 87 C33.13761719 84.81375 32.27523437 82.6275 31.38671875 80.375 C30.48209187 78.08219819 29.57737025 75.78943379 28.67263794 73.49667358 C28.01637283 71.83347527 27.36018375 70.17024696 26.70407104 68.50698853 C22.40468111 57.60842547 18.09510332 46.71396896 13.7734375 35.82421875 C12.46637713 32.52891524 11.15941084 29.23357442 9.85244751 25.93823242 C8.99090015 23.76708987 8.12873556 21.59619216 7.26596069 19.42553711 C6.05211301 16.37152237 4.84031077 13.31670325 3.62890625 10.26171875 C3.26086884 9.33743576 2.89283142 8.41315277 2.51364136 7.46086121 C2.18115387 6.62130386 1.84866638 5.78174652 1.50610352 4.91674805 C1.21381363 4.1808696 0.92152374 3.44499115 0.62037659 2.68681335 C0 1 0 1 0 0 Z " fill="#0F0E0F" transform="translate(537,751)"/>
<path d="M0 0 C6.12497427 2.81069565 10.53088982 7.83387087 12.9765625 14.13671875 C14.83217105 22.14892 14.18074862 30.94178124 10.48046875 38.3125 C7.09532323 43.43857751 3.38576182 46.66344 -2.51953125 48.3125 C-9.95219828 49.24049927 -16.75958616 49.48474978 -22.91015625 44.79296875 C-29.49282343 38.73755404 -32.5810127 32.82407177 -32.95703125 23.9375 C-32.72379707 17.20169697 -31.20649049 11.28577457 -26.61328125 6.203125 C-18.72938769 -0.91591322 -10.57417569 -2.88535647 0 0 Z " fill="#F7F7F6" transform="translate(812.51953125,770.6875)"/>
<path d="M0 0 C6.39549731 3.35141621 9.56433949 8.08164604 11.70703125 14.89453125 C12.94760977 24.13436007 12.34184448 32.2536065 6.70703125 39.89453125 C2.72598539 44.29244055 -1.7009551 46.6310405 -7.59765625 47.23046875 C-19.79222137 47.3638885 -19.79222137 47.3638885 -25.29296875 42.89453125 C-30.86547918 37.41294756 -33.50713847 32.83689252 -33.67358398 24.81567383 C-33.65287021 16.57609271 -33.58182511 10.39681411 -27.64453125 4.1640625 C-19.79286168 -3.05330188 -9.79664545 -4.36958321 0 0 Z " fill="#F8F7F7" transform="translate(403.29296875,772.10546875)"/>
<path d="M0 0 C0.99 0.33 1.98 0.66 3 1 C3.04565298 33.18787592 3.0810337 65.37574261 3.10213066 97.56364336 C3.10463199 101.36615943 3.10722064 105.16867543 3.10986328 108.97119141 C3.1103879 109.72818445 3.11091252 110.4851775 3.11145304 111.26510973 C3.12014894 123.51243171 3.13591442 135.75973486 3.15430559 148.00704567 C3.17302732 160.57961075 3.18412153 173.15216599 3.18817699 185.72474444 C3.19091733 193.4788786 3.19956372 201.23295954 3.21583293 208.98707731 C3.22768271 214.93904206 3.2289056 220.89097967 3.22621536 226.84295654 C3.22676486 229.28017123 3.23073344 231.71738795 3.23841095 234.15459061 C3.2483952 237.48801136 3.24595607 240.82120634 3.24050903 244.15463257 C3.24633472 245.11380502 3.2521604 246.07297747 3.25816262 247.06121576 C3.23090922 253.25291671 2.43068898 258.97700026 1 265 C0.67 265 0.34 265 0 265 C0 177.55 0 90.1 0 0 Z " fill="#1F1F1F" transform="translate(859,310)"/>
<path d="M0 0 C6.01420408 4.78189501 7.66002876 8.73738879 8.75390625 16.39453125 C-5.43609375 16.39453125 -19.62609375 16.39453125 -34.24609375 16.39453125 C-33.22130985 9.22104393 -32.25799661 6.26897686 -27.24609375 1.39453125 C-19.47184565 -4.09046197 -8.26664035 -4.88404847 0 0 Z " fill="#EFEEEE" transform="translate(506.24609375,769.60546875)"/>
<path d="M0 0 C1.51303711 0.02030273 1.51303711 0.02030273 3.05664062 0.04101562 C5.51750621 0.07600424 7.97720335 0.12508842 10.4375 0.1875 C10.33626824 1.77434568 10.21843634 3.3601373 10.09375 4.9453125 C10.02994141 5.82848145 9.96613281 6.71165039 9.90039062 7.62158203 C9.11609875 11.96910716 6.8256439 14.49271044 3.4375 17.1875 C-3.09105208 21.5355673 -9.88380492 22.10501122 -17.5625 21.1875 C-21.7742209 19.66256657 -23.08236208 18.90770689 -25.5625 15.1875 C-26.10931085 10.96924484 -26.1027314 8.95428005 -23.625 5.4375 C-16.35565299 0.09675526 -8.77007545 -0.22636197 0 0 Z " fill="#F8F7F7" transform="translate(218.5625,800.8125)"/>
<path d="M0 0 C2.82917867 2.24670071 5.15888206 4.46233721 6.15625 7.953125 C6.62237801 12.76978105 6.67815197 14.96523913 4.40625 19.265625 C1.07287011 23.24716209 -1.01346991 25.00153421 -6.15625 25.890625 C-10.25686445 26.20761329 -12.93199531 25.63076282 -16.33203125 23.30859375 C-19.69764727 20.29084501 -21.64555202 17.27487279 -22.03515625 12.7109375 C-21.71513329 6.95052425 -20.03736617 3.8608128 -15.84375 -0.046875 C-11.14667514 -3.04778394 -4.81605427 -2.73453929 0 0 Z " fill="#101010" transform="translate(644.84375,813.046875)"/>
<path d="M0 0 C7.59 0 15.18 0 23 0 C23 23.1 23 46.2 23 70 C22.01 70.495 22.01 70.495 21 71 C21 48.23 21 25.46 21 2 C14.4 2 7.8 2 1 2 C1 41.27 1 80.54 1 121 C10.9 120.505 10.9 120.505 21 120 C21 110.1 21 100.2 21 90 C21.99 89.505 21.99 89.505 23 89 C23 100.22 23 111.44 23 123 C15.41 123 7.82 123 0 123 C0 82.41 0 41.82 0 0 Z " fill="#020202" transform="translate(266,715)"/>
<path d="M0 0 C0.99 0 1.98 0 3 0 C5.3098129 7.32106789 5.25729998 14.27302138 5.1953125 21.90625 C5.19157544 23.24002875 5.18873175 24.57381028 5.18673706 25.90759277 C5.17915506 29.39282001 5.15955436 32.8778766 5.1373291 36.36303711 C5.11675256 39.92950127 5.10771027 43.4959934 5.09765625 47.0625 C5.07630243 54.0417432 5.04116561 61.0208458 5 68 C-2.26 68 -9.52 68 -17 68 C-17 64.37 -17 60.74 -17 57 C-16.34 57 -15.68 57 -15 57 C-15 59.97 -15 62.94 -15 66 C-9.39 66 -3.78 66 2 66 C1.96447021 64.13230957 1.92894043 62.26461914 1.89233398 60.34033203 C1.77630884 54.17770563 1.66503982 48.01500781 1.5570364 41.85223579 C1.49136252 38.11481259 1.42376419 34.37744464 1.35180664 30.64013672 C1.28246742 27.03517435 1.21813258 23.43015459 1.15730476 19.82503891 C1.13318115 18.44786192 1.10723738 17.07071559 1.07946587 15.69360733 C1.04095339 13.76864694 1.00944231 11.8435503 0.97827148 9.91845703 C0.95828598 8.82147491 0.93830048 7.7244928 0.91770935 6.5942688 C1 4 1 4 2 2 C1.34 2 0.68 2 0 2 C0 1.34 0 0.68 0 0 Z " fill="#161616" transform="translate(246,770)"/>
<path d="M0 0 C33.33 0 66.66 0 101 0 C99.02 2.31 97.04 4.62 95 7 C95 4 95 4 96 3 C63.99 2.67 31.98 2.34 -1 2 C-0.67 1.34 -0.34 0.68 0 0 Z " fill="#1E1D1D" transform="translate(685,196)"/>
<path d="M0 0 C0 27.72 0 55.44 0 84 C-1.98 84.495 -1.98 84.495 -4 85 C-3.505 84.01 -3.505 84.01 -3 83 C-2.87784515 80.4987767 -2.81436719 78.02352013 -2.79467773 75.52099609 C-2.78477814 74.75017197 -2.77487854 73.97934784 -2.76467896 73.18516541 C-2.7330317 70.6312876 -2.70829383 68.07739118 -2.68359375 65.5234375 C-2.663027 63.75509145 -2.64203061 61.98675035 -2.62062073 60.21841431 C-2.56537119 55.55940757 -2.51597464 50.90035625 -2.46777344 46.24127197 C-2.41757944 41.48893253 -2.36188242 36.73665798 -2.30664062 31.984375 C-2.19902381 22.65630541 -2.09758667 13.32817953 -2 4 C-2.66 3.67 -3.32 3.34 -4 3 C-1.125 0 -1.125 0 0 0 Z " fill="#010101" transform="translate(394,494)"/>
<path d="M0 0 C1.61358398 -0.01836914 1.61358398 -0.01836914 3.25976562 -0.03710938 C4.28650391 -0.03904297 5.31324219 -0.04097656 6.37109375 -0.04296875 C7.79119751 -0.04913208 7.79119751 -0.04913208 9.23999023 -0.05541992 C11.5625 0.1875 11.5625 0.1875 13.5625 2.1875 C9.20272997 3.41521614 5.06357569 3.37140489 0.5625 3.375 C-0.64792969 3.39336914 -0.64792969 3.39336914 -1.8828125 3.41210938 C-3.05457031 3.41500977 -3.05457031 3.41500977 -4.25 3.41796875 C-4.95769531 3.42207764 -5.66539062 3.42618652 -6.39453125 3.43041992 C-8.75585067 3.1496464 -10.38142823 2.35328114 -12.4375 1.1875 C-9.96151267 -1.28848733 -3.32889842 0.0019874 0 0 Z " fill="#1F1F1F" transform="translate(714.4375,651.8125)"/>
<path d="M0 0 C0.91644287 0.00523682 1.83288574 0.01047363 2.77709961 0.01586914 C3.76645508 0.0190918 4.75581055 0.02231445 5.77514648 0.02563477 C6.81606445 0.03401367 7.85698242 0.04239258 8.92944336 0.05102539 C10.49662109 0.05779297 10.49662109 0.05779297 12.09545898 0.06469727 C14.68600996 0.07652627 17.27644895 0.0930085 19.86694336 0.11352539 C18.54694336 2.75352539 17.22694336 5.39352539 15.86694336 8.11352539 C15.53694336 7.45352539 15.20694336 6.79352539 14.86694336 6.11352539 C15.52694336 4.79352539 16.18694336 3.47352539 16.86694336 2.11352539 C10.59694336 2.11352539 4.32694336 2.11352539 -2.13305664 2.11352539 C-2.79305664 3.43352539 -3.45305664 4.75352539 -4.13305664 6.11352539 C-6.75805664 7.36352539 -6.75805664 7.36352539 -9.13305664 8.11352539 C-8.15439326 6.96726217 -7.17511077 5.82152751 -6.19555664 4.67602539 C-5.6502832 4.03793945 -5.10500977 3.39985352 -4.54321289 2.74243164 C-2.27383554 0.12101792 -2.27383554 0.12101792 0 0 Z " fill="#040404" transform="translate(515.133056640625,811.886474609375)"/>
<path d="M0 0 C1.68762851 1.6454378 3.3540349 3.31288577 5 5 C5 5.33 5 5.66 5 6 C-3.91 6 -12.82 6 -22 6 C-22 5.34 -22 4.68 -22 4 C-14.41 3.67 -6.82 3.34 1 3 C0.67 2.01 0.34 1.02 0 0 Z " fill="#040404" transform="translate(342,832)"/>
<path d="M0 0 C7.92 0 15.84 0 24 0 C23.67 2.31 23.34 4.62 23 7 C22.01 7 21.02 7 20 7 C20 6.34 20 5.68 20 5 C20.66 5 21.32 5 22 5 C22 4.34 22 3.68 22 3 C21.01 3.33 20.02 3.66 19 4 C17.00708008 4.02172852 17.00708008 4.02172852 14.76953125 3.87890625 C13.96708984 3.83056641 13.16464844 3.78222656 12.33789062 3.73242188 C11.08782227 3.64831055 11.08782227 3.64831055 9.8125 3.5625 C8.5450293 3.48418945 8.5450293 3.48418945 7.25195312 3.40429688 C5.16763701 3.27476311 3.08376818 3.13806823 1 3 C0.67 2.01 0.34 1.02 0 0 Z " fill="#494949" transform="translate(726,806)"/>
<path d="M0 0 C0.99 0 1.98 0 3 0 C2.67 7.92 2.34 15.84 2 24 C1.34 24 0.68 24 0 24 C0 16.08 0 8.16 0 0 Z " fill="#EEEEEE" transform="translate(659,507)"/>
<path d="M0 0 C0.66 0 1.32 0 2 0 C2.33 1.65 2.66 3.3 3 5 C-4.92 5 -12.84 5 -21 5 C-17.84685215 2.89790143 -17.13896919 2.7565239 -13.55078125 2.8046875 C-12.27944336 2.81435547 -12.27944336 2.81435547 -10.98242188 2.82421875 C-9.66081055 2.84935547 -9.66081055 2.84935547 -8.3125 2.875 C-6.97348633 2.88853516 -6.97348633 2.88853516 -5.60742188 2.90234375 C-3.40467686 2.92590252 -1.20247412 2.95879671 1 3 C0.67 2.01 0.34 1.02 0 0 Z " fill="#050405" transform="translate(747,776)"/>
<path d="M0 0 C5.94 0.33 11.88 0.66 18 1 C18.33 1.66 18.66 2.32 19 3 C13.14072182 4.67407948 6.89014391 4.52003714 1 3 C0.67 2.01 0.34 1.02 0 0 Z " fill="#242323" transform="translate(376,837)"/>
<path d="M0 0 C2.56780471 3.8415976 2.22688882 7.8139175 2.125 12.25 C2.11597656 12.99507812 2.10695313 13.74015625 2.09765625 14.5078125 C2.07418358 16.33868059 2.03831525 18.16938238 2 20 C1.01 20 0.02 20 -1 20 C-1.02703562 17.41659616 -1.04685611 14.83347692 -1.0625 12.25 C-1.07087891 11.52039063 -1.07925781 10.79078125 -1.08789062 10.0390625 C-1.10391684 6.51329442 -0.95292713 3.38965084 0 0 Z " fill="#1E1E1E" transform="translate(450,782)"/>
<path d="M0 0 C0 6.27 0 12.54 0 19 C-0.99 18.67 -1.98 18.34 -3 18 C-3 12.39 -3 6.78 -3 1 C-1 0 -1 0 0 0 Z " fill="#161516" transform="translate(665,784)"/>
<path d="M0 0 C0.66 0 1.32 0 2 0 C1.68954268 1.9169986 1.37655329 3.83358723 1.0625 5.75 C0.88847656 6.81734375 0.71445312 7.8846875 0.53515625 8.984375 C0.11295829 11.36347593 -0.37202884 13.66915211 -1 16 C-1.99 16 -2.98 16 -4 16 C-3.47606294 10.13190493 -2.23891142 5.45126259 0 0 Z " fill="#171617" transform="translate(588,479)"/>
<path d="M0 0 C-0.33 0.99 -0.66 1.98 -1 3 C-2.299375 2.979375 -3.59875 2.95875 -4.9375 2.9375 C-6.29165633 2.91600546 -7.64756083 2.92851801 -9 3 C-9.33 3.33 -9.66 3.66 -10 4 C-11.66617115 4.04063832 -13.33388095 4.042721 -15 4 C-15 3.01 -15 2.02 -15 1 C-9.91913204 0.15318867 -5.15171623 -0.09038099 0 0 Z " fill="#1E1E1E" transform="translate(316,268)"/>
<path d="M0 0 C4.95 0 9.9 0 15 0 C15 0.99 15 1.98 15 3 C9.72 3 4.44 3 -1 3 C-0.67 2.01 -0.34 1.02 0 0 Z " fill="#191919" transform="translate(214,798)"/>
<path d="M0 0 C0 0.66 0 1.32 0 2 C-4.1196377 3.29243536 -7.66831683 4.26252625 -12 4 C-12 3.01 -12 2.02 -12 1 C-10.56496445 0.63597631 -9.12683494 0.28413409 -7.6875 -0.0625 C-6.88699219 -0.25972656 -6.08648437 -0.45695313 -5.26171875 -0.66015625 C-3 -1 -3 -1 0 0 Z " fill="#151516" transform="translate(510,836)"/>
<path d="M0 0 C0.99 0.33 1.98 0.66 3 1 C3.33 2.98 3.66 4.96 4 7 C8.62 7 13.24 7 18 7 C18 7.33 18 7.66 18 8 C12.72 8 7.44 8 2 8 C0 3 0 3 0 0 Z " fill="#151516" transform="translate(568,828)"/>
<path d="M0 0 C3.3 0 6.6 0 10 0 C10 0.66 10 1.32 10 2 C10.99 2.33 11.98 2.66 13 3 C8.71 3 4.42 3 0 3 C0 2.01 0 1.02 0 0 Z " fill="#232323" transform="translate(207,765)"/>
<path d="M0 0 C1.12438477 0.08507812 1.12438477 0.08507812 2.27148438 0.171875 C4.11926559 0.31310669 5.966012 0.46776167 7.8125 0.625 C7.8125 0.955 7.8125 1.285 7.8125 1.625 C5.77170995 1.8218121 3.72979993 2.00702831 1.6875 2.1875 C-0.01792969 2.34412109 -0.01792969 2.34412109 -1.7578125 2.50390625 C-5.07647993 2.62108016 -7.9437686 2.2905072 -11.1875 1.625 C-7.31959648 -0.95360235 -4.42136085 -0.38614505 0 0 Z " fill="#191818" transform="translate(302.1875,592.375)"/>
<path d="M0 0 C2.30143236 3.45214853 2.13833854 4.23479324 1.625 8.1875 C1.51414062 9.08855469 1.40328125 9.98960937 1.2890625 10.91796875 C1.19367187 11.60503906 1.09828125 12.29210937 1 13 C0.01 13 -0.98 13 -2 13 C-1.34 8.71 -0.68 4.42 0 0 Z " fill="#1B1A1A" transform="translate(788,529)"/>
<path d="M0 0 C2.18359375 2.0234375 2.18359375 2.0234375 4 4 C1.87527424 4.05386629 -0.24983652 4.09273071 -2.375 4.125 C-4.15003906 4.15980469 -4.15003906 4.15980469 -5.9609375 4.1953125 C-9 4 -9 4 -11 2 C-7.18538362 0.20488641 -4.21411291 -0.53797186 0 0 Z " fill="#191819" transform="translate(640,811)"/>
<path d="M0 0 C0.33 1.32 0.66 2.64 1 4 C0.34 4 -0.32 4 -1 4 C-0.67 4.66 -0.34 5.32 0 6 C0.039992 7.99960012 0.04346799 10.00047242 0 12 C-0.99 12 -1.98 12 -3 12 C-2.88541307 10.56163249 -2.75790884 9.12429034 -2.625 7.6875 C-2.55539062 6.88699219 -2.48578125 6.08648438 -2.4140625 5.26171875 C-2 3 -2 3 0 0 Z " fill="#212020" transform="translate(626,816)"/>
<path d="M0 0 C0.66 0 1.32 0 2 0 C2 3.3 2 6.6 2 10 C1.67 10 1.34 10 1 10 C0.67 8.35 0.34 6.7 0 5 C-1.65 5.33 -3.3 5.66 -5 6 C-3.38405168 3.95880212 -1.7143618 1.95927063 0 0 Z M-7 6 C-5 7 -5 7 -5 7 Z " fill="#D8D9D8" transform="translate(414,828)"/>
<path d="M0 0 C0.33 0 0.66 0 1 0 C1.07347656 1.30324219 1.07347656 1.30324219 1.1484375 2.6328125 C1.22320312 3.78523437 1.29796875 4.93765625 1.375 6.125 C1.44460938 7.26195312 1.51421875 8.39890625 1.5859375 9.5703125 C1.99443876 12.95393616 2.80967569 15.81612441 4 19 C3.34 19 2.68 19 2 19 C-1.32306573 14.87182096 -1.21637435 11.83200507 -0.6875 6.6875 C-0.50767578 4.80611328 -0.50767578 4.80611328 -0.32421875 2.88671875 C-0.21722656 1.93410156 -0.11023438 0.98148438 0 0 Z " fill="#2F2E2F" transform="translate(369,790)"/>
<path d="M0 0 C3.7863342 2.35013847 5.36782371 4.87660726 7 9 C6.67 9.99 6.34 10.98 6 12 C3.02404533 9.44918171 1.55997434 6.56565563 0 3 C0 2.01 0 1.02 0 0 Z " fill="#1A1A1A" transform="translate(778,478)"/>
<path d="M0 0 C-0.33 0.99 -0.66 1.98 -1 3 C-4.96 3 -8.92 3 -13 3 C-8.72352613 0.14901742 -5.0682068 -0.14480591 0 0 Z " fill="#ECEBEB" transform="translate(214,819)"/>
<path d="M0 0 C0.66 0.33 1.32 0.66 2 1 C-1.44615385 7.76923077 -1.44615385 7.76923077 -4.25 8.9375 C-4.8275 8.958125 -5.405 8.97875 -6 9 C-4.68775452 5.06326356 -3.08089673 2.77280706 0 0 Z " fill="#090909" transform="translate(185,757)"/>
<path d="M0 0 C1.08667969 0.29197266 1.08667969 0.29197266 2.1953125 0.58984375 C2.74960937 0.74582031 3.30390625 0.90179687 3.875 1.0625 C3.875 2.0525 3.875 3.0425 3.875 4.0625 C-0.34412747 3.5830537 -2.92163178 2.89624881 -6.125 0.0625 C-3.57797384 -1.21101308 -2.6967055 -0.73941925 0 0 Z " fill="#161616" transform="translate(301.125,516.9375)"/>
<path d="M0 0 C0.66 0.33 1.32 0.66 2 1 C1.34 3.64 0.68 6.28 0 9 C-0.99 9 -1.98 9 -3 9 C-2.5020163 5.26512223 -2.12508244 3.18762365 0 0 Z " fill="#171717" transform="translate(174,800)"/>
<path d="M0 0 C3.86933162 0.57323431 6.15222057 2.38953552 9 5 C9 5.66 9 6.32 9 7 C5.56072421 5.7580393 2.74792181 4.44259716 0 2 C0 1.34 0 0.68 0 0 Z " fill="#151615" transform="translate(403,289)"/>
<path d="M0 0 C0.66 0.33 1.32 0.66 2 1 C2 1.66 2 2.32 2 3 C1.34 3 0.68 3 0 3 C0 4.65 0 6.3 0 8 C-0.66 8 -1.32 8 -2 8 C-1.67 9.32 -1.34 10.64 -1 12 C-1.99 12.33 -2.98 12.66 -4 13 C-3.71517632 11.58194169 -3.42181856 10.16559621 -3.125 8.75 C-2.96257812 7.96109375 -2.80015625 7.1721875 -2.6328125 6.359375 C-2.00849925 4.03168856 -1.15161458 2.10968048 0 0 Z " fill="#161616" transform="translate(352,769)"/>
<path d="M0 0 C4.95 0.33 9.9 0.66 15 1 C15 1.33 15 1.66 15 2 C7.08 2.495 7.08 2.495 -1 3 C-0.67 2.01 -0.34 1.02 0 0 Z " fill="#181717" transform="translate(697,749)"/>
<path d="M0 0 C1.45742463 -0.08096803 2.91612807 -0.13917774 4.375 -0.1875 C5.18710937 -0.22230469 5.99921875 -0.25710938 6.8359375 -0.29296875 C7.55007813 -0.19628906 8.26421875 -0.09960938 9 0 C9.66 0.99 10.32 1.98 11 3 C7.37 3 3.74 3 0 3 C0 2.01 0 1.02 0 0 Z " fill="#171717" transform="translate(721,387)"/>
<path d="M0 0 C2.50298434 2.93828597 3.46930939 5.17902761 4 9 C3.01 9 2.02 9 1 9 C-1.125 2.25 -1.125 2.25 0 0 Z " fill="#161616" transform="translate(560,804)"/>
<path d="M0 0 C1.45947705 0.06006078 2.91779272 0.1488689 4.375 0.25 C5.59316406 0.31960938 5.59316406 0.31960938 6.8359375 0.390625 C7.55007813 0.59171875 8.26421875 0.7928125 9 1 C9.66 2.32 10.32 3.64 11 5 C7.7 4.34 4.4 3.68 1 3 C0.67 2.01 0.34 1.02 0 0 Z " fill="#1F1F1E" transform="translate(680,648)"/>
<path d="M0 0 C0 0.66 0 1.32 0 2 C-4.3164922 2.76173392 -7.74433453 3.16063604 -12 2 C-12 1.67 -12 1.34 -12 1 C-10.37681021 0.63762737 -8.7513642 0.28534843 -7.125 -0.0625 C-6.22007812 -0.25972656 -5.31515625 -0.45695313 -4.3828125 -0.66015625 C-2 -1 -2 -1 0 0 Z " fill="#1D1D1C" transform="translate(745,588)"/>
<path d="M0 0 C3 1.125 3 1.125 5 2.125 C4.67 3.115 4.34 4.105 4 5.125 C-2.75 2.375 -2.75 2.375 -5 0.125 C-3 -0.875 -3 -0.875 0 0 Z " fill="#191919" transform="translate(394,282.875)"/>
<path d="M0 0 C3.63 0 7.26 0 11 0 C6.09396701 3.67952474 4.82490317 3.29124516 -1 3 C-0.67 2.01 -0.34 1.02 0 0 Z " fill="#212121" transform="translate(800,819)"/>
<path d="M0 0 C0.66 0.33 1.32 0.66 2 1 C2 1.66 2 2.32 2 3 C-2.455 4.485 -2.455 4.485 -7 6 C-7.33 5.01 -7.66 4.02 -8 3 C-7.05125 2.690625 -6.1025 2.38125 -5.125 2.0625 C-2.13919592 1.12605258 -2.13919592 1.12605258 0 0 Z " fill="#171717" transform="translate(802,643)"/>
<path d="M0 0 C0.66 0.66 1.32 1.32 2 2 C0.35 3.65 -1.3 5.3 -3 7 C-3.99 6.67 -4.98 6.34 -6 6 C-4.02 4.02 -2.04 2.04 0 0 Z " fill="#181818" transform="translate(562,332)"/>
<path d="M0 0 C-3.28194629 2.1879642 -4.22475937 2.18876203 -8 2 C-8.99 2 -9.98 2 -11 2 C-8.74490247 -2.51019507 -4.15738698 -0.70597137 0 0 Z " fill="#151515" transform="translate(290,274)"/>
<path d="M0 0 C2.31 0.33 4.62 0.66 7 1 C7 1.66 7 2.32 7 3 C7.99 3.33 8.98 3.66 10 4 C6.14354879 4.22036864 3.50776784 3.60355101 0 2 C0 1.34 0 0.68 0 0 Z " fill="#F3F3F3" transform="translate(185,838)"/>
<path d="M0 0 C3.3 0.99 6.6 1.98 10 3 C6 5 6 5 2.75 4.125 C1.8425 3.75375 0.935 3.3825 0 3 C0 2.01 0 1.02 0 0 Z " fill="#171718" transform="translate(473,833)"/>
<path d="M0 0 C2.35448165 2.55068845 2.98327924 3.71017358 3.1875 7.25 C3.125625 8.1575 3.06375 9.065 3 10 C0.86746245 7.40386733 -0.55075623 5.36932827 -1 2 C-0.67 1.34 -0.34 0.68 0 0 Z " fill="#171718" transform="translate(594,573)"/>
<path d="M0 0 C1.98 0.66 3.96 1.32 6 2 C5.67 2.99 5.34 3.98 5 5 C2.69 4.01 0.38 3.02 -2 2 C-1.34 1.34 -0.68 0.68 0 0 Z " fill="#191819" transform="translate(762,396)"/>
<path d="M0 0 C2.31 0 4.62 0 7 0 C6.67 0.99 6.34 1.98 6 3 C4.02 3 2.04 3 0 3 C0 2.01 0 1.02 0 0 Z " fill="#161616" transform="translate(485,837)"/>
<path d="M0 0 C0.99 0 1.98 0 3 0 C2.45276317 3.37462715 1.9451 5.08235 0 8 C-0.79953138 4.71303767 -1.09658936 3.28976808 0 0 Z " fill="#1A191A" transform="translate(604,752)"/>
<path d="M0 0 C0.99 0 1.98 0 3 0 C3.25 2.3125 3.25 2.3125 3 5 C1 6.8125 1 6.8125 -1 8 C-0.67 5.36 -0.34 2.72 0 0 Z " fill="#151516" transform="translate(782,552)"/>
<path d="M0 0 C-4.30769231 3.07692308 -4.30769231 3.07692308 -7.8125 2.6875 C-8.534375 2.460625 -9.25625 2.23375 -10 2 C-6.19832777 -0.53444815 -4.31588991 -1.33941411 0 0 Z " fill="#1B1A1A" transform="translate(680,393)"/>
<path d="M0 0 C0.99 0 1.98 0 3 0 C3.625 2.875 3.625 2.875 4 6 C3.34 6.66 2.68 7.32 2 8 C0.74335022 5.09399739 0 3.20395416 0 0 Z " fill="#161515" transform="translate(575,797)"/>
<path d="M0 0 C0.99 0.33 1.98 0.66 3 1 C2.44271087 4.34373475 1.64826111 7.03312999 0 10 C-1.125 3.375 -1.125 3.375 0 0 Z " fill="#191919" transform="translate(760,777)"/>
<path d="M0 0 C-0.33 0.99 -0.66 1.98 -1 3 C-4.0625 4.1875 -4.0625 4.1875 -7 5 C-6.6875 3.0625 -6.6875 3.0625 -6 1 C-3 0 -3 0 0 0 Z " fill="#171818" transform="translate(489,765)"/>
<path d="M0 0 C0.99 0 1.98 0 3 0 C4.125 7.75 4.125 7.75 3 10 C2.49596232 8.70990357 1.99690074 7.41786211 1.5 6.125 C1.2215625 5.40570312 0.943125 4.68640625 0.65625 3.9453125 C0 2 0 2 0 0 Z " fill="#161515" transform="translate(561,758)"/>
<path d="M0 0 C-0.66 0 -1.32 0 -2 0 C-2.33 0.99 -2.66 1.98 -3 3 C-4.65 3.33 -6.3 3.66 -8 4 C-8 3.01 -8 2.02 -8 1 C-3.375 -1.125 -3.375 -1.125 0 0 Z " fill="#161616" transform="translate(756,646)"/>
<path d="M0 0 C0.33 0 0.66 0 1 0 C1.33 2.97 1.66 5.94 2 9 C1.01 9 0.02 9 -1 9 C-0.67 6.03 -0.34 3.06 0 0 Z " fill="#222222" transform="translate(245,447)"/>
<path d="M0 0 C4.455 0.99 4.455 0.99 9 2 C6 4 6 4 2.8125 3.625 C1.884375 3.41875 0.95625 3.2125 0 3 C0 2.01 0 1.02 0 0 Z " fill="#1B1B1B" transform="translate(745,390)"/>
<path d="M0 0 C0.66 0 1.32 0 2 0 C0.68775452 3.93673644 -0.91910327 6.22719294 -4 9 C-4.66 8.67 -5.32 8.34 -6 8 C-4.73046875 6.50260417 -3.4609375 5.00520833 -2.19140625 3.5078125 C-0.9121848 1.99405921 -0.9121848 1.99405921 0 0 Z " fill="#141414" transform="translate(223,306)"/>
<path d="M0 0 C1.9451 2.91765 2.45276317 4.62537285 3 8 C2.01 8 1.02 8 0 8 C-0.79953138 4.71303767 -1.09658936 3.28976808 0 0 Z " fill="#141415" transform="translate(179,489)"/>
<path d="M0 0 C-0.33 0.99 -0.66 1.98 -1 3 C-2.98 3.33 -4.96 3.66 -7 4 C-7 3.01 -7 2.02 -7 1 C-4.53721199 -0.231394 -2.7204945 -0.07159196 0 0 Z " fill="#161516" transform="translate(712,449)"/>
</svg>
